<svg id="Шар_1" data-name="Шар 1" xmlns="http://www.w3.org/2000/svg" xmlns:xlink="http://www.w3.org/1999/xlink" viewBox="0 0 28.44 32.05"><defs><style>.cls-1{fill:url(#Градієнт_без_назви_13);}.cls-2{fill:url(#Градієнт_без_назви_9);}.cls-3{fill:url(#Градієнт_без_назви_13-2);}.cls-4{fill:url(#Градієнт_без_назви_13-3);}.cls-5{fill:url(#Градієнт_без_назви_13-4);}.cls-6{fill:url(#Градієнт_без_назви_13-5);}</style><linearGradient id="Градієнт_без_назви_13" x1="5.5" y1="15.77" x2="22.48" y2="15.77" gradientTransform="matrix(1.07, 0.02, 0.02, 1.08, -0.18, -1.22)" gradientUnits="userSpaceOnUse"><stop offset="0" stop-color="#063"/><stop offset="1" stop-color="#39a935"/></linearGradient><radialGradient id="Градієнт_без_назви_9" cx="13.85" cy="15.99" r="7.34" gradientTransform="matrix(1.11, 0.02, 0.02, 1.08, -0.6, -1.22)" gradientUnits="userSpaceOnUse"><stop offset="0" stop-color="#39a935"/><stop offset="1" stop-color="#063"/></radialGradient><linearGradient id="Градієнт_без_назви_13-2" x1="15.84" y1="0" x2="15.84" y2="22.29" gradientTransform="matrix(1, 0, 0, 1, 0, 0)" xlink:href="#Градієнт_без_назви_13"/><linearGradient id="Градієнт_без_назви_13-3" x1="16" y1="23.68" x2="16" y2="32.05" gradientTransform="matrix(1, 0, 0, 1, 0, 0)" xlink:href="#Градієнт_без_назви_13"/><linearGradient id="Градієнт_без_назви_13-4" x1="4.81" y1="32.05" x2="4.81" y2="23.74" gradientTransform="matrix(1, 0, 0, 1, 0, 0)" xlink:href="#Градієнт_без_назви_13"/><linearGradient id="Градієнт_без_назви_13-5" x1="5.49" y1="22.78" x2="5.49" y2="0" gradientTransform="matrix(1, 0, 0, 1, 0, 0)" xlink:href="#Градієнт_без_назви_13"/></defs><title>LOGO_E</title><path class="cls-1" d="M6.23,22.66a9.79,9.79,0,0,1,4.5-4.19c3.5-1.51,6.14.16,9-1.17,1.54-.72,3.5-2.51,4.42-7.57a10.74,10.74,0,0,1-5,5c-3.23,1.43-5.63.22-8.45,1.72C9.22,17.18,7.37,18.76,6.23,22.66Z" transform="translate(-1.78)"/><path class="cls-2" d="M6.23,22.85a22.84,22.84,0,0,0,6.1.26c2.55-.24,6-.56,8.62-2.83,4.06-3.57,3.29-9.64,3.16-10.55-.65,3.74-2.19,5.58-3.43,6.57-2.27,1.8-4.46,1.48-8.58,3.18A26.5,26.5,0,0,0,6.23,22.85Z" transform="translate(-1.78)"/><path class="cls-3" d="M6.61,4.56c-.17,5.91,0,11.83-.21,17.73a13.75,13.75,0,0,1,1.07-2.44,9.58,9.58,0,0,1,4-4.2,8.21,8.21,0,0,1,2.84-.82h0c0-3.76.09-9.07.22-12,1.17-.06,2.77-.12,4.66-.16,5-.1,6.09.1,6.83.84.39.39,1.1,1.35.82,3.54H27a12.49,12.49,0,0,1,.55-3.25A38.18,38.18,0,0,1,29,.15C27.9.05,4.54.07,2.67,0V.21a4.44,4.44,0,0,1,3,1.21A4.25,4.25,0,0,1,6.61,4.56Z" transform="translate(-1.78)"/><path class="cls-4" d="M29.89,23.88c0,.23-.59,4.17-3,4.76a2.68,2.68,0,0,1-.83.07L14.48,29c-.1-1.37-.16-3.1-.2-5.17v-.16a20.93,20.93,0,0,1-4,.43,21,21,0,0,1-3.88-.35c0,.9-.1,1.8-.17,2.7-.09,1.13-.25,3.33-1.89,4.48a4.43,4.43,0,0,1-2.46.73l0,.38q7.63-.18,15.4-.27c4-.06,7.93-.09,11.85-.11a51.85,51.85,0,0,1,1.19-7.83Z" transform="translate(-1.78)"/><path class="cls-5" d="M7.84,24c-.59-.06-1.13-.15-1.62-.24v1.6h0c0,1.58,0,3.68-1.32,5a4.54,4.54,0,0,1-2.12,1.19,4.86,4.86,0,0,1-1,.1l0,.38a10.24,10.24,0,0,0,2.64-.43,8.73,8.73,0,0,0,1.69-.68C8,29.86,7.84,26.28,7.84,25.19Z" transform="translate(-1.78)"/><path class="cls-6" d="M6.8.87A9.24,9.24,0,0,0,5.36.33,8.9,8.9,0,0,0,2.67,0V.21a5,5,0,0,1,.75.11A7.25,7.25,0,0,1,5.18,1C7,2.08,6.71,7.37,6.6,10.09c-.25,6.24-.34,10.33-.37,12.69h0a13.22,13.22,0,0,1,1.23-2.93l.45-.76c0-2.31.15-5.32.3-9.14C8.33,7.24,8.67,1.82,6.8.87Z" transform="translate(-1.78)"/></svg>