<svg id="Шар_1" data-name="Шар 1" xmlns="http://www.w3.org/2000/svg" xmlns:xlink="http://www.w3.org/1999/xlink" viewBox="0 0 160 49.68"><defs><style>.cls-1{fill:url(#Градієнт_без_назви_13);}.cls-2{fill:url(#Градієнт_без_назви_9);}.cls-3{fill:url(#Градієнт_без_назви_13-2);}.cls-4{fill:url(#Градієнт_без_назви_13-3);}.cls-5{fill:url(#Градієнт_без_назви_13-4);}.cls-6{fill:url(#Градієнт_без_назви_13-5);}.cls-7{font-size:36.12px;fill:#4ead33;font-family:BookAntiqua-Bold, Book Antiqua;font-weight:700;}</style><linearGradient id="Градієнт_без_назви_13" x1="9.09" y1="21.05" x2="28.95" y2="21.05" gradientTransform="matrix(1.07, 0.02, 0.02, 1.08, -4.77, -3.05)" gradientUnits="userSpaceOnUse"><stop offset="0" stop-color="#063"/><stop offset="1" stop-color="#39a935"/></linearGradient><radialGradient id="Градієнт_без_назви_9" cx="21.22" cy="21.26" r="8.58" gradientTransform="matrix(1.11, 0.02, 0.02, 1.08, -8.03, -3.05)" gradientUnits="userSpaceOnUse"><stop offset="0" stop-color="#39a935"/><stop offset="1" stop-color="#063"/></radialGradient><linearGradient id="Градієнт_без_назви_13-2" x1="16.86" y1="1.26" x2="16.86" y2="27.32" gradientTransform="matrix(1, 0, 0, 1, 0, 0)" xlink:href="#Градієнт_без_назви_13"/><linearGradient id="Градієнт_без_назви_13-3" x1="17.05" y1="28.95" x2="17.05" y2="38.74" gradientTransform="matrix(1, 0, 0, 1, 0, 0)" xlink:href="#Градієнт_без_назви_13"/><linearGradient id="Градієнт_без_назви_13-4" x1="3.97" y1="38.74" x2="3.97" y2="29.03" gradientTransform="matrix(1, 0, 0, 1, 0, 0)" xlink:href="#Градієнт_без_назви_13"/><linearGradient id="Градієнт_без_назви_13-5" x1="4.76" y1="27.9" x2="4.76" y2="1.26" gradientTransform="matrix(1, 0, 0, 1, 0, 0)" xlink:href="#Градієнт_без_назви_13"/></defs><title>LOGO</title><path class="cls-1" d="M5.62,27.75a11.56,11.56,0,0,1,5.27-4.89c4.09-1.76,7.17.19,10.48-1.36,1.8-.85,4.09-2.95,5.17-8.86a12.66,12.66,0,0,1-5.89,5.84c-3.79,1.67-6.59.25-9.9,2C9.12,21.35,7,23.2,5.62,27.75Z" transform="translate(-0.42 -1.26)"/><path class="cls-2" d="M5.62,28a26.86,26.86,0,0,0,7.14.31c3-.28,7-.66,10.08-3.32,4.75-4.17,3.85-11.27,3.7-12.33-.76,4.37-2.56,6.52-4,7.68-2.65,2.11-5.21,1.73-10,3.72A31.58,31.58,0,0,0,5.62,28Z" transform="translate(-0.42 -1.26)"/><path class="cls-3" d="M6.07,6.59c-.21,6.91,0,13.83-.25,20.73a16,16,0,0,1,1.26-2.85,11.15,11.15,0,0,1,4.62-4.9,9.26,9.26,0,0,1,3.32-1h0c0-4.39.1-10.61.25-14,1.37-.07,3.24-.14,5.45-.19,5.86-.12,7.12.12,8,1,.45.45,1.29,1.57,1,4.13H30a15.07,15.07,0,0,1,.64-3.8,44.56,44.56,0,0,1,1.68-4.26C31,1.31,3.64,1.33,1.46,1.26V1.5A5.24,5.24,0,0,1,5,2.91,5,5,0,0,1,6.07,6.59Z" transform="translate(-0.42 -1.26)"/><path class="cls-4" d="M33.29,29.18c0,.27-.68,4.88-3.47,5.58a2.89,2.89,0,0,1-1,.07l-13.59.36q-.16-2.41-.23-6V29a23.4,23.4,0,0,1-4.73.5,24.32,24.32,0,0,1-4.55-.4c0,1.05-.11,2.11-.19,3.16-.11,1.31-.3,3.89-2.22,5.24a5.24,5.24,0,0,1-2.87.85c0,.15,0,.29,0,.44q8.93-.2,18-.32,7-.09,13.87-.12a59.49,59.49,0,0,1,1.38-9.16Z" transform="translate(-0.42 -1.26)"/><path class="cls-5" d="M7.51,29.3c-.69-.07-1.33-.17-1.89-.27,0,1.25,0,1.85,0,1.86h0c0,1.85,0,4.31-1.54,5.9a5.25,5.25,0,0,1-2.48,1.39,5.26,5.26,0,0,1-1.12.12l0,.44a11.58,11.58,0,0,0,3.09-.5,10.46,10.46,0,0,0,2-.79c2.16-1.26,2-5.45,2-6.73C7.51,30.72,7.5,30.26,7.51,29.3Z" transform="translate(-0.42 -1.26)"/><path class="cls-6" d="M6.29,2.28a10.71,10.71,0,0,0-1.68-.64,10.56,10.56,0,0,0-3.15-.38V1.5a5.81,5.81,0,0,1,.88.13,8.49,8.49,0,0,1,2.06.81C6.56,3.69,6.18,9.87,6.06,13.06c-.3,7.29-.4,12.08-.43,14.84h0a15.81,15.81,0,0,1,1.45-3.43c.15-.27.33-.57.52-.88.06-2.71.17-6.23.35-10.7C8.08,9.72,8.48,3.39,6.29,2.28Z" transform="translate(-0.42 -1.26)"/><text class="cls-7" transform="translate(34.6 37.49) scale(1.04 1)">-CarFix</text></svg>