<svg width="24" height="24" viewBox="0 0 24 24" fill="none" xmlns="http://www.w3.org/2000/svg">
<path d="M20.9937 13.1799C20.7292 13.1799 20.4526 13.0958 20.188 13.0356C19.6523 12.9176 19.1258 12.7609 18.6127 12.5667C18.0549 12.3637 17.4417 12.3743 16.8911 12.5963C16.3405 12.8183 15.8915 13.236 15.6305 13.7692L15.3659 14.3103C14.1947 13.6588 13.1184 12.8495 12.1672 11.9053C11.223 10.9541 10.4138 9.87784 9.76222 8.70659L10.2673 8.36989C10.8004 8.10884 11.2182 7.65984 11.4402 7.10928C11.6622 6.55872 11.6727 5.94551 11.4698 5.38765C11.2789 4.87348 11.1222 4.34723 11.0008 3.81236C10.9407 3.5478 10.8926 3.27122 10.8565 2.99464C10.7105 2.14762 10.2668 1.38056 9.60544 0.831607C8.94405 0.282656 8.10839 -0.0121139 7.24896 0.000381562H3.64142C3.12317 -0.00448446 2.60996 0.102371 2.13672 0.313673C1.66348 0.524976 1.24133 0.835764 0.898997 1.22488C0.556666 1.614 0.302194 2.07231 0.152906 2.56861C0.003618 3.06491 -0.0369815 3.58756 0.0338715 4.10096C0.674497 9.13875 2.97526 13.8195 6.57273 17.4039C10.1702 20.9884 14.8593 23.2721 19.8994 23.8944H20.3564C21.2431 23.8957 22.0993 23.5703 22.7614 22.9804C23.1418 22.6402 23.4457 22.2231 23.653 21.7567C23.8603 21.2903 23.9663 20.7852 23.9639 20.2748V16.6672C23.9492 15.832 23.645 15.0277 23.1033 14.3917C22.5616 13.7557 21.816 13.3274 20.9937 13.1799ZM21.595 20.395C21.5948 20.5658 21.5582 20.7345 21.4877 20.89C21.4172 21.0455 21.3144 21.1842 21.1861 21.2969C21.0517 21.4129 20.8946 21.4996 20.7248 21.5514C20.555 21.6031 20.3763 21.6189 20.2001 21.5976C15.6965 21.0201 11.5134 18.9598 8.31044 15.7417C5.10752 12.5235 3.06711 8.33061 2.51105 3.82438C2.49191 3.64823 2.50869 3.47004 2.56036 3.30055C2.61203 3.13107 2.69753 2.97383 2.81168 2.83832C2.92437 2.71005 3.06308 2.60724 3.21859 2.53675C3.37409 2.46625 3.54283 2.42968 3.71357 2.42946H7.32111C7.60075 2.42324 7.87382 2.5147 8.0933 2.68809C8.31278 2.86148 8.46496 3.10596 8.52363 3.37945C8.57173 3.70814 8.63186 4.03282 8.70401 4.35349C8.84292 4.98739 9.02779 5.61033 9.25716 6.21739L7.57364 6.99902C7.4297 7.06506 7.30022 7.15889 7.19263 7.27511C7.08505 7.39133 7.00149 7.52766 6.94674 7.67627C6.89199 7.82488 6.86713 7.98284 6.87359 8.14108C6.88006 8.29932 6.91772 8.45472 6.98441 8.59836C8.71507 12.3054 11.695 15.2853 15.402 17.016C15.6948 17.1362 16.0232 17.1362 16.3159 17.016C16.4659 16.9623 16.6037 16.8794 16.7214 16.7721C16.839 16.6647 16.9342 16.5351 17.0014 16.3907L17.7469 14.7071C18.3686 14.9295 19.003 15.1142 19.6469 15.2603C19.9676 15.3325 20.2922 15.3926 20.6209 15.4407C20.8944 15.4993 21.1389 15.6515 21.3123 15.871C21.4857 16.0905 21.5771 16.3636 21.5709 16.6432L21.595 20.395ZM23.9038 0.769991C23.7818 0.476158 23.5483 0.242658 23.2544 0.120633C23.1099 0.0590152 22.9546 0.0263318 22.7975 0.0244318H17.9874C17.6685 0.0244318 17.3626 0.151125 17.1371 0.37664C16.9116 0.602156 16.7849 0.90802 16.7849 1.22695C16.7849 1.54587 16.9116 1.85174 17.1371 2.07725C17.3626 2.30277 17.6685 2.42946 17.9874 2.42946H19.8874L15.9311 6.39776C15.7072 6.62307 15.5814 6.92785 15.5814 7.24554C15.5814 7.56322 15.7072 7.868 15.9311 8.09331C16.1564 8.31728 16.4612 8.44299 16.7789 8.44299C17.0966 8.44299 17.4014 8.31728 17.6267 8.09331L21.595 4.13703V6.03701C21.595 6.35593 21.7217 6.6618 21.9472 6.88731C22.1727 7.11283 22.4786 7.23952 22.7975 7.23952C23.1164 7.23952 23.4223 7.11283 23.6478 6.88731C23.8733 6.6618 24 6.35593 24 6.03701V1.22695C23.9981 1.06981 23.9654 0.914561 23.9038 0.769991Z" fill="#65AD35"/>
</svg>
